<?xml version="1.0" standalone="no"?>
<!DOCTYPE svg PUBLIC "-//W3C//DTD SVG 1.1//EN" "http://www.w3.org/Graphics/SVG/1.1/DTD/svg11.dtd" >
<!--
2013-9-30: Created.
-->
<svg>
<metadata>
Created by iconfont
</metadata>
<defs>

<font id="iconfont" horiz-adv-x="1024" >
  <font-face
    font-family="iconfont"
    font-weight="500"
    font-stretch="normal"
    units-per-em="1024"
    ascent="896"
    descent="-128"
  />
    <missing-glyph />
    
    <glyph glyph-name="fabu" unicode="&#58947;" d="M934.784072 125.312286c-4.919033-103.121636-90.146113-185.509041-194.157002-185.509041l-3.523243 0L284.933471-60.196755l-3.51915 0c-104.013959 0-189.285041 82.387405-194.19998 185.509041l-0.213871 0 0 9.457396L87.00047 633.627361l0 1.654686 0 9.411347 0.213871 0c4.91494 103.161544 90.186022 185.549973 194.19998 185.549973l359.013677 0 0-0.044002 27.604708 0-83.829244-70.850651L563.088562 759.348714l-41.425482 0-90.403986 0L281.414321 759.348714c-68.183915 0-123.728976-55.67809-123.728976-124.06769l0-23.833825 0-1.824555 0-124.658138L157.685345 162.920836l0-0.252757 0-27.898397c0-68.394716 55.54506-124.068713 123.728976-124.068713l149.844773 0 0 0 159.51911 0 0 0 149.848866 0c68.180845 0 123.724883 55.672974 123.724883 124.068713l0 25.65224 0 0.765433L864.351953 285.085176 864.351953 485.050464l70.685899 69.666686L935.037852 134.769682l0-9.457396L934.784072 125.312286 934.784072 125.312286zM690.674379 436.498678l-51.260477-54.102199c-17.004279-17.388019-60.044538-61.019749-73.65144-75.43711-13.657045-14.500249-24.976858-26.412556-33.9226-35.783994-8.948813-9.372461-14.332427-14.754029-15.986089-16.072047-4.327562-3.985778-9.203616-8.184403-14.759145-12.676717-5.510504-4.453429-11.275811-8.015557-17.253966-10.68434-5.978155-3.140527-14.71412-6.872524-26.248827-11.449773-11.533684-4.452405-23.574928-8.775874-36.211736-13.020548-12.592806-4.238534-24.550139-7.885598-35.830043-11.022031-11.320836-3.051499-19.759019-5.132904-25.314549-6.062066-11.489682-1.316995-19.162432 0.506537-23.023366 5.381567-3.855818 4.879124-4.91494 13.18837-3.220345 24.678052 0.890276 6.27696 2.883677 15.309684 6.108115 27.098171 3.176342 11.827373 6.613628 24.081465 10.216689 36.759205 3.647063 12.681834 7.166213 24.424272 10.556427 35.108612 3.437286 10.68434 6.191003 18.063401 8.353248 22.049179 2.543939 6.192026 5.430686 11.916401 8.651031 17.045211 3.180436 5.132904 7.757684 10.813277 13.740956 17.045211 2.539846 2.673899 8.522094 9.03477 17.934464 19.038612 9.367345 10.05296 48.720631 50.076512 62.794162 64.790632l46.728254 48.805566 51.901067 54.102199L703.608969 700.665173l120.758318-122.501008L690.674379 436.498678 690.674379 436.498678zM907.223367 664.751219c-6.360871-6.659677-12.085246-12.468986-17.130146-17.472953-5.048993-5.004991-9.457396-9.457396-13.18837-13.314237-4.239558-4.452405-8.185426-8.353248-11.916401-11.658528L744.822626 744.759437c6.404873 6.108115 13.953803 13.44215 22.729677 22.050202 8.775874 8.606005 16.110933 15.394618 21.920242 20.398586 7.502881 6.101975 15.181771 10.386558 23.192212 12.885472 7.29515 2.291183 14.46034 3.394307 21.542642 3.349281l1.948375 0c3.89982-0.168846 7.761778-0.546446 11.492752-1.182942-0.083911 0.040932-0.257873 0-0.341784 0.040932 0.083911 0 0.25685 0 0.341784-0.040932 16.155958-3.010567 33.072233-11.70253 47.448662-25.612331 7.971555-7.761778 14.45727-16.408715 19.162432-25.313525 6.957459-13.144368 10.261715-26.885324 9.626241-39.433104 0-1.52575 0.128937-3.096525 0.128937-4.666276 0-7.250124-1.356904-14.456247-4.02978-21.666462C917.316236 678.362214 913.031653 671.404756 907.223367 664.751219L907.223367 664.751219zM907.223367 664.751219"  horiz-adv-x="1024" />

    
    <glyph glyph-name="huo" unicode="&#58988;" d="M336-76.8c-60.8 128-28.8 201.6 19.2 268.8 51.2 76.8 64 150.4 64 150.4s41.6-51.2 25.6-134.4c70.4 80 83.2 208 73.6 256 160-112 230.4-358.4 137.6-537.6 492.8 281.6 121.6 700.8 57.6 745.6 22.4-48 25.6-128-19.2-166.4-73.6 281.6-256 336-256 336 22.4-144-76.8-300.8-172.8-419.2-3.2 57.6-6.4 96-38.4 153.6-6.4-105.6-86.4-188.8-108.8-294.4C89.6 137.6 140.8 35.2 336-76.8L336-76.8z"  horiz-adv-x="1024" />

    
    <glyph glyph-name="lianxikefu" unicode="&#58950;" d="M307.2-121.6c-12.8 0-32 6.4-38.4 12.8-19.2 19.2-25.6 44.8-12.8 70.4l32 83.2C288 51.2 294.4 64 294.4 64c0 19.2 19.2 32 32 25.6 19.2 0 32-12.8 32-32 0-12.8-6.4-32-12.8-44.8l-32-76.8 198.4 108.8c6.4 0 12.8 6.4 12.8 6.4 243.2 6.4 441.6 179.2 441.6 396.8 0 204.8-204.8 384-448 384-236.8 0-441.6-172.8-448-384-6.4-121.6 57.6-230.4 166.4-313.6 12.8-12.8 19.2-32 6.4-44.8-12.8-12.8-32-19.2-44.8-6.4-128 89.6-198.4 224-198.4 364.8 6.4 243.2 243.2 448 512 448 275.2 0 512-204.8 512-448 0-249.6-224-454.4-492.8-460.8l-198.4-108.8C326.4-121.6 320-121.6 307.2-121.6zM697.6 480 339.2 480C320 480 307.2 492.8 307.2 512c0 19.2 12.8 32 32 32l358.4 0c19.2 0 32-12.8 32-32C729.6 492.8 716.8 480 697.6 480zM576 332.8 339.2 332.8c-19.2 0-32 12.8-32 32 0 19.2 12.8 32 32 32l243.2 0c19.2 0 32-12.8 32-32C608 345.6 595.2 332.8 576 332.8z"  horiz-adv-x="1031" />

    
    <glyph glyph-name="jiantou31" unicode="&#59181;" d="M277.44 278.72l250.773 250.667 250.667-250.667z"  horiz-adv-x="1024" />

    
    <glyph glyph-name="jiantou32" unicode="&#59182;" d="M767.893 446.614l-250.773-250.667-250.667 250.667z"  horiz-adv-x="1024" />

    
    <glyph glyph-name="jiantou2" unicode="&#58942;" d="M510.80529-57.690678c-244.532319 0-443.568445 199.037149-443.568445 443.568445 0 244.534366 198.971657 443.568445 443.568445 443.568445 244.660232 0 443.567421-199.034079 443.567421-443.568445C954.372711 141.346471 755.465522-57.690678 510.80529-57.690678zM510.80529 770.325719c-212.151841 0-384.827599-172.485423-384.827599-384.447952 0-211.960483 172.674735-384.382461 384.827599-384.382461 212.215286 0 384.890021 172.4844 384.890021 384.382461C895.696334 597.84132 723.084021 770.325719 510.80529 770.325719zM430.265976 141.599228c-5.703909 0-11.342326 2.090615-15.651468 6.526647-8.617261 8.617261-8.617261 22.557762 0 31.302937l205.245548 206.449979-205.118658 206.513424c-8.616238 8.618285-8.616238 22.62223 0 31.429827 8.617261 8.617261 22.558785 8.617261 31.17707 0l236.167814-237.94325-236.294704-237.816361C441.608302 143.689842 435.968861 141.599228 430.265976 141.599228z"  horiz-adv-x="1024" />

    
    <glyph glyph-name="delete" unicode="&#58944;" d="M970.105 653.474h-80.842v-727.579c0-29.75-24.118-53.895-53.895-53.895h-646.737c-29.777 0-53.895 24.145-53.895 53.895v727.579h-80.842c-14.875 0-26.947 12.072-26.947 26.947 0 14.902 12.072 26.947 26.947 26.947h916.211c14.875 0 26.947-12.045 26.947-26.947 0-14.875-12.072-26.947-26.947-26.947zM188.632-74.105h646.737v727.579h-646.737v-727.579zM673.684 60.632c-14.875 0-26.947 12.072-26.947 26.947v377.263c0 14.875 12.072 26.947 26.947 26.947 14.875 0 26.947-12.072 26.947-26.947v-377.263c0-14.875-12.072-26.947-26.947-26.947zM512 60.632c-14.875 0-26.947 12.072-26.947 26.947v377.263c0 14.875 12.072 26.947 26.947 26.947s26.947-12.072 26.947-26.947v-377.263c0-14.875-12.072-26.947-26.947-26.947zM350.316 60.632c-14.875 0-26.947 12.072-26.947 26.947v377.263c0 14.875 12.072 26.947 26.947 26.947 14.875 0 26.947-12.072 26.947-26.947v-377.263c0-14.875-12.072-26.947-26.947-26.947zM673.684 842.105h-323.368c-44.652 0-80.842-36.19-80.842-80.842h-53.895c0 74.429 60.335 134.737 134.737 134.737h323.368c74.402 0 134.737-60.308 134.737-134.737h-53.895c0 44.652-36.19 80.842-80.842 80.842z"  horiz-adv-x="1024" />

    
    <glyph glyph-name="renzheng" unicode="&#58945;" d="M511.953455-106.146909c-142.987636 0-408.901818 218.763636-408.901818 425.634909L103.051636 731.578182l40.657455 0.674909c0.861091 0 91.624727 1.931636 185.274182 39.936 96.046545 39.028364 157.998545 83.828364 158.580364 84.247273l24.273455 17.687273 24.482909-17.687273c0.581818-0.442182 62.533818-45.218909 158.580364-84.247273 93.649455-38.004364 184.413091-39.936 185.367273-39.936l40.471273-0.674909 0.186182-412.090182C920.948364 112.64 655.034182-106.146909 511.953455-106.146909L511.953455-106.146909zM185.623273 652.590545l0-333.079273c0-159.953455 231.633455-343.063273 326.330182-343.063273 94.72 0 326.330182 183.109818 326.330182 343.063273L838.283636 652.590545c-40.471273 4.375273-106.170182 15.429818-174.405818 43.124364-69.934545 28.439273-123.042909 59.345455-151.947636 77.754182-28.811636-18.408727-81.989818-49.314909-151.854545-77.754182C291.793455 667.997091 226.071273 656.965818 185.623273 652.590545L185.623273 652.590545zM490.077091 164.654545l-173.614545 147.898182 53.387636 62.813091 111.383273-94.813091 211.386182 243.525818 62.417455-54.155636L490.077091 164.654545 490.077091 164.654545zM490.077091 164.654545"  horiz-adv-x="1024" />

    
    <glyph glyph-name="shijian" unicode="&#58887;" d="M512 832C256 832 51.2 624 51.2 371.2s208-460.8 460.8-460.8 460.8 208 460.8 460.8S768 832 512 832z m0-876.8C284.8-44.8 99.2 140.8 99.2 368S284.8 780.8 512 780.8 924.8 595.2 924.8 368 742.4-44.8 512-44.8zM809.6 352H531.2V633.6c0 12.8-9.6 22.4-22.4 22.4-12.8 0-22.4-9.6-22.4-22.4v-307.2c0-12.8 9.6-22.4 22.4-22.4h300.8c12.8 0 22.4 9.6 22.4 22.4 0 16-9.6 25.6-22.4 25.6z"  horiz-adv-x="1024" />

    
    <glyph glyph-name="jiaru" unicode="&#58896;" d="M934.450421 546.125913a1277.70713 1277.70713 0 0 0-30.675478-234.206609C860.099117 118.494609 745.322073-128 517.682421-128c-3.962435 0-7.969391 0.066783-11.954087 0.222609-202.061913 7.524174-322.782609 206.781217-369.530435 384.333913C84.018421 454.722783 74.067812 695.318261 106.969377 727.952696c22.038261 21.860174 52.49113 25.266087 84.190609 25.266087 14.313739 0 28.894609-0.690087 43.052522-0.690087 16.851478 0 33.101913 0.979478 47.638261 5.320347 47.727304 14.224696 77.824 56.676174 110.413913 91.158261C423.20729 881.664 460.182595 896 497.380508 896c50.598957 0 101.554087-26.512696 138.150956-69.453913 33.613913-39.446261 56.832-72.837565 111.638261-78.692174 7.880348-0.845913 15.872-1.135304 23.863652-1.135304 17.385739 0 34.882783 1.357913 52.045913 1.357913 27.625739 0 54.450087-3.539478 78.603131-22.016 40.470261-30.920348 34.192696-138.50713 32.768-179.934609zM858.674421 674.660174c-6.477913 4.162783-15.515826 6.633739-35.595131 6.633739-7.702261 0-15.449043-0.311652-23.240347-0.623304-9.594435-0.378435-19.21113-0.734609-28.805566-0.734609-11.308522 0-21.459478 0.489739-30.98713 1.513739-76.822261 8.192-114.176 52.691478-147.122087 91.937391l-8.392348 9.906087C560.022595 812.054261 527.454943 829.217391 497.380508 829.217391c-21.081043 0-40.091826-8.770783-56.453565-26.067478-5.565217-5.87687-11.063652-12.02087-16.584348-18.209391-29.495652-32.990609-66.248348-74.061913-123.325218-91.069218-24.130783-7.212522-48.37287-8.125217-66.804869-8.125217-7.590957 0-15.293217 0.178087-23.04 0.356174a751.549217 751.549217 0 0 1-20.012522 0.333913c-16.517565 0-25.978435-1.313391-31.321043-2.960696-9.149217-45.078261-8.97113-219.870609 41.093565-409.956174 41.516522-157.762783 144.050087-328.481391 307.266782-334.558608 3.183304-0.111304 6.366609-0.178087 9.483131-0.178087 216.464696 0 300.27687 296.826435 320.823652 387.806608 16.517565 73.282783 26.557217 149.971478 29.050435 221.829566l0.244869 6.989913c3.116522 82.276174-3.962435 109.946435-9.126956 119.251478zM686.263986 339.478261h-144.695652v-144.695652a33.391304 33.391304 0 0 0-66.782609 0V339.478261h-144.695652a33.391304 33.391304 0 0 0 0 66.782609h144.695652v144.695652a33.391304 33.391304 0 0 0 66.782609 0V406.26087h144.695652a33.391304 33.391304 0 0 0 0-66.782609z"  horiz-adv-x="1024" />

    
    <glyph glyph-name="weizhi" unicode="&#58881;" d="M512 327.111c-96.711 0-170.667 73.956-170.667 170.667S415.29 668.444 512 668.444s170.667-73.955 170.667-170.666S608.71 327.11 512 327.11zM512 384c62.578 0 113.778 51.2 113.778 113.778S574.578 611.556 512 611.556s-113.778-51.2-113.778-113.778S449.422 384 512 384zM512-71.111C244.622 145.067 113.778 332.8 113.778 497.778 113.778 742.4 301.51 896 512 896s398.222-153.6 398.222-398.222c0-164.978-130.844-352.711-398.222-568.89z m341.333 568.889c0 199.11-147.91 341.333-341.333 341.333S170.667 696.89 170.667 497.778c0-136.534 113.777-301.511 341.333-494.934 227.556 193.423 341.333 358.4 341.333 494.934z"  horiz-adv-x="1024" />

    
    <glyph glyph-name="ziyuan" unicode="&#58910;" d="M779.656047 226.620622a31.50762 31.50762 0 0 0-22.37041 9.294747L645.906202 347.294805l-111.379436-111.379436a31.50762 31.50762 0 0 0-44.583281 44.583282l133.749845 133.592307a31.50762 31.50762 0 0 0 44.425744 0l133.749845-133.592307a31.50762 31.50762 0 0 0-22.212872-53.878029zM960.982398-127.997637H787.69049a31.50762 31.50762 0 0 0 0 63.015239h166.360231a29.302086 29.302086 0 0 0 5.356296 0 283.568576 283.568576 0 0 1 54.980796 557.527329 31.50762 31.50762 0 0 0-23.630715 27.411629 346.583816 346.583816 0 0 1-689.701793 0 31.50762 31.50762 0 0 0-23.788253-27.411629A283.568576 283.568576 0 0 1 332.405387-64.982398a31.50762 31.50762 0 0 0 5.513833 0H645.906202a31.50762 31.50762 0 0 0 0-63.015239H330.830006a33.398077 33.398077 0 0 0-8.979672 1.260305 346.583816 346.583816 0 0 0-80.817044 675.05075 409.599055 409.599055 0 0 0 809.745824 0 346.583816 346.583816 0 0 0-81.132121-675.208288A31.50762 31.50762 0 0 0 960.982398-127.997637zM645.906202-112.243827a31.50762 31.50762 0 0 0-31.50762 31.507619V344.616657a31.50762 31.50762 0 0 0 63.015239 0v-425.352865a31.50762 31.50762 0 0 0-31.507619-31.507619z"  horiz-adv-x="1291" />

    
    <glyph glyph-name="fangda" unicode="&#60435;" d="M919.264-9.984l-138.912 138.912C851.808 203.68 896 304.672 896 416c0 229.376-186.624 416-416 416S64 645.376 64 416s186.624-416 416-416c95.008 0 182.432 32.384 252.544 86.208l141.44-141.44a31.904 31.904 0 0 1 45.248 0 32 32 0 0 1 0.032 45.248zM128 416C128 610.08 285.92 768 480 768s352-157.92 352-352-157.92-352-352-352S128 221.92 128 416zM625.792 448H512v112a32 32 0 0 1-64 0V448h-112a32 32 0 0 1 0-64H448v-112a32 32 0 1 1 64 0V384h113.792a32 32 0 1 1 0 64z"  horiz-adv-x="1024" />

    
    <glyph glyph-name="jiantou_zuoyouqiehuan" unicode="&#60173;" d="M234.666667 465.066667H128l85.333333 81.066666L345.6 682.666667l51.2-51.2-81.066667-81.066667H896V469.333333H234.666667v-4.266666zM793.6 341.333333H896l-85.333333-81.066666-132.266667-132.266667-51.2 51.2 81.066667 81.066667H128V341.333333h665.6z"  horiz-adv-x="1024" />

    
    <glyph glyph-name="jiantou_xiangshang_o" unicode="&#60304;" d="M507.733333 682.666667v-725.333334h42.666667V691.2l145.066667-145.066667 29.866666 29.866667L533.333333 768 341.333333 576l29.866667-29.866667L507.733333 682.666667z"  horiz-adv-x="1024" />

    
    <glyph glyph-name="jiantou_xiangxia_o" unicode="&#60305;" d="M558.933333 42.666667V768h-42.666666v-733.866667l-145.066667 145.066667-29.866667-29.866667 192-192 192 192-29.866666 29.866667-136.533334-136.533333z"  horiz-adv-x="1024" />

    
    <glyph glyph-name="jiantou_xiangyouliangci_o" unicode="&#60306;" d="M759.466667 362.666667L469.333333 652.8l29.866667 29.866667 320-320-320-320-29.866667 29.866666 290.133334 290.133334z m-298.666667 0L170.666667 652.8l29.866666 29.866667 320-320L200.533333 42.666667l-29.866666 29.866666 290.133333 290.133334z"  horiz-adv-x="1024" />

    
    <glyph glyph-name="jiantou_xiangzuoliangci_o" unicode="&#60307;" d="M170.666667 362.666667L490.666667 682.666667l29.866666-29.866667-290.133333-290.133333 290.133333-290.133334-29.866666-29.866666L170.666667 362.666667z m298.666666 0L789.333333 682.666667l29.866667-29.866667-290.133333-290.133333 290.133333-290.133334-29.866667-29.866666-320 320z"  horiz-adv-x="1024" />

    
    <glyph glyph-name="jiantou_xiangyou_o" unicode="&#60308;" d="M853.333333 388.266667H128v-42.666667h733.866667l-145.066667-145.066667 29.866667-29.866666 192 192L746.666667 554.666667l-29.866667-29.866667 136.533333-136.533333z"  horiz-adv-x="1024" />

    
    <glyph glyph-name="xiadan" unicode="&#58923;" d="M860.16-128c-10.24 0-20.48 5.12-25.6 15.36l-133.12 153.6c-5.12 10.24-5.12 20.48 0 30.72 5.12 10.24 15.36 15.36 30.72 15.36h61.44V230.4c0 15.36 15.36 30.72 30.72 30.72h76.8c15.36 0 30.72-15.36 30.72-30.72v-143.36h61.44c10.24 0 20.48-5.12 30.72-15.36 5.12-10.24 5.12-25.6 0-35.84l-133.12-148.48c-10.24-10.24-20.48-15.36-30.72-15.36zM71.68 824.32h732.16v-363.52h71.68V824.32c0 40.96-30.72 71.68-71.68 71.68H71.68C30.72 896 0 865.28 0 824.32v-732.16c0-40.96 30.72-71.68 71.68-71.68H512v71.68H71.68V824.32z m0 0M220.16 686.08h440.32v-71.68H220.16zM220.16 486.4h440.32v-71.68H220.16z"  horiz-adv-x="1027" />

    
    <glyph glyph-name="icon_siji" unicode="&#58893;" d="M988.814222 342.641778a376.632889 376.632889 0 0 1-43.377778 2.702222c-206.336 0-373.646222-166.513778-373.646222-371.911111 0-15.132444 1.194667-29.980444 2.958222-44.629333h-125.468444c1.792 14.677333 2.958222 29.496889 2.958222 44.629333 0 205.425778-167.281778 371.911111-373.674666 371.911111a381.155556 381.155556 0 0 1-45.852445-3.043556c0.910222 24.064 2.588444 74.097778 1.564445 93.212445 101.063111 106.894222 277.248 147.882667 477.752888 147.882667 201.216 0 377.941333-41.728 478.805334-149.077334-2.56-3.043556-2.275556-65.308444-2.019556-91.676444z m-476.842666 122.254222c-33.052444 0-59.847111-26.851556-59.847112-59.989333s26.794667-59.989333 59.847112-59.989334c33.109333 0 59.875556 26.851556 59.875555 59.989334s-26.766222 59.989333-59.875555 59.989333zM511.971556-128C231.850667-128 4.750222 101.233778 4.750222 384S231.850667 896 511.971556 896c280.177778 0 507.278222-229.233778 507.278222-512s-227.100444-512-507.278222-512z m0 910.222222C294.087111 782.222222 117.475556 603.932444 117.475556 384s176.611556-398.222222 394.496-398.222222S906.524444 164.067556 906.524444 384 729.856 782.222222 511.971556 782.222222z"  horiz-adv-x="1024" />

    
    <glyph glyph-name="shang--jiantou" unicode="&#58969;" d="M440.218071-128v818.448637h144.492824v-818.448637zM493.16437 888.775359L318.74089 714.351879c-10.320916-10.320916-10.320916-26.834382 0-37.155298H703.711056c10.320916 10.320916 10.320916 26.834382 0 37.155298L531.351759 888.775359c-10.320916 9.288824-27.866473 9.288824-38.187389 0z"  horiz-adv-x="1024" />

    
    <glyph glyph-name="chaxunsousuo" unicode="&#58948;" d="M801.109381 535.569141a401.609934 401.609934 0 1 1-440.675627-440.675628 402.887784 402.887784 0 0 1 440.675627 440.675628z m-146.039976-74.297838A255.569958 255.569958 0 1 0 368.283402 748.239856a255.569958 255.569958 0 0 0 286.603453-286.968553zM597.699905 206.472528m45.953307 45.953307l-0.129083-0.129083q45.953307 45.953307 91.906613 0l269.523888-269.523887q45.953307-45.953307 0-91.906613l0.129082 0.129082q-45.953307-45.953307-91.906613 0l-269.523887 269.523888q-45.953307 45.953307 0 91.906613Z"  horiz-adv-x="1024" />

    
    <glyph glyph-name="jiantou" unicode="&#58900;" d="M512 896a512 512 0 1 1 512-512A512 512 0 0 1 512 896zM256 128l153.6 256L256 640l512-256z"  horiz-adv-x="1024" />

    
    <glyph glyph-name="jiantou1" unicode="&#58901;" d="M512 896a512 512 0 1 1 512-512 512 512 0 0 1-512 512zM256 128L409.6 384 256 640l228.750222-114.346667L768 384z"  horiz-adv-x="1024" />

    
    <glyph glyph-name="chengshidingwei" unicode="&#58902;" d="M512-127.492818a139.474988 139.474988 0 0 0-84.699356 28.402179 156.211986 156.211986 0 0 0-25.866271 25.866271C267.031204 102.767707 106.254581 343.679049 106.254581 490.254581a405.745419 405.745419 0 0 0 811.490838 0c0-146.575532-160.776622-387.486875-295.179792-563.478949A139.982169 139.982169 0 0 0 512-127.492818zM512 794.563645a304.309064 304.309064 0 0 1-304.309064-304.309064c0-89.771174 101.436355-276.921248 274.385339-501.602773a50.718177 50.718177 0 0 1 7.100545-7.607727 38.038633 38.038633 0 0 1 50.718178 7.607727C714.872709 212.826152 816.309064 400.483408 816.309064 490.254581a304.309064 304.309064 0 0 1-304.309064 304.309064zM512 306.65478A183.599802 183.599802 0 1 0 695.599802 490.254581 183.599802 183.599802 0 0 0 512 306.65478z m0 265.763249A82.163447 82.163447 0 1 1 594.163447 490.254581 81.656265 81.656265 0 0 1 512 572.418029z"  horiz-adv-x="1024" />

    
    <glyph glyph-name="xiaojiantouhuise" unicode="&#58904;" d="M512-128a512 512 0 1 0 512 512 512.5632 512.5632 0 0 0-512-512zM460.8 673.6384L388.4032 601.2416 605.6448 384l-217.2416-217.2416L460.8 94.3616 750.3872 384 460.8 673.6384z"  horiz-adv-x="1024" />

    
    <glyph glyph-name="sousuo" unicode="&#58906;" d="M455.111111 78.868687A362.020202 362.020202 0 0 0 199.283502 696.716498 362.020202 362.020202 0 1 0 455.111111 78.868687zM272.377104 623.622896a258.585859 258.585859 0 1 1 365.812795 0 259.275421 259.275421 0 0 1-365.812795 0zM638.189899 184.750976l73.162559 73.162559 219.41872-219.41872-73.12808-73.162559z"  horiz-adv-x="1024" />

    
    <glyph glyph-name="kefudianhua" unicode="&#58907;" d="M804.292833 230.39397a74.113499 74.113499 0 0 1-112.047833 0c-26.214324-25.98785-52.372029-51.975701-78.133406-78.35988a15.456826 15.456826 0 0 0-21.571615-3.963288c-16.985523 9.228801-34.990177 16.985523-51.296279 26.837126a812.417567 812.417567 0 0 0-195.899699 178.291374A464.270963 464.270963 0 0 0 275.137172 465.700083a16.079628 16.079628 0 0 0 3.963289 20.665719c26.214324 25.308429 51.749227 51.29628 77.510603 77.28413a74.453209 74.453209 0 0 1 0 114.708899c-20.495864 20.66572-40.935111 40.935111-61.430975 61.657449s-42.067479 42.463808-63.412619 63.412619a74.623065 74.623065 0 0 1-112.047834 0c-26.384179-25.98785-51.749227-52.598503-78.586353-78.133406a127.561278 127.561278 0 0 1-40.085835-86.059983 364.622561 364.622561 0 0 1 28.309205-156.946233 953.510646 953.510646 0 0 1 169.289047-282.016301 1047.440588 1047.440588 0 0 1 346.957617-271.428658 501.978824 501.978824 0 0 1 192.162884-55.93899 140.809986 140.809986 0 0 1 120.880306 46.030768c22.647364 25.081956 47.785938 48.012412 71.565671 71.961999a74.906157 74.906157 0 0 1 0.452947 114.029478q-63.186146 62.846435-126.372292 125.466397zM734.029386 456.810992l53.844108 9.172183a241.81723 241.81723 0 0 1-204.505697 198.164435l-7.586867-54.183818a186.840754 186.840754 0 0 0 158.531548-153.435892zM911.924431 782.423469A397.291384 397.291384 0 0 1 684.148567 896l-7.586867-54.183819a346.617907 346.617907 0 0 0 293.283365-284.224419l53.844108 9.172183a400.178923 400.178923 0 0 1-111.764742 215.659524z"  horiz-adv-x="1024" />

    
    <glyph glyph-name="wuliuzhuanxian" unicode="&#58908;" d="M1007.075202 95.316423a25.749144 25.749144 0 0 1-25.749144 25.749144H104.953118l154.084847 154.084846a25.66714 25.66714 0 0 1-36.245611 36.245611L24.999565 113.603235a25.503133 25.503133 0 0 1 0-36.24561l197.792789-197.792789a25.66714 25.66714 0 0 1 36.409618 36.245611l-154.084847 154.084846h876.618952a25.42113 25.42113 0 0 1 25.339125 25.42113zM999.940885 690.990891L802.148097 888.619672a25.66714 25.66714 0 0 1-36.245611-36.24561l154.084847-154.084847H42.958363a25.749144 25.749144 0 1 1 0-51.498288h876.618952L765.492468 493.116098a25.66714 25.66714 0 0 1 36.409618-36.24561l197.792789 197.792789a25.749144 25.749144 0 0 1 0.24601 36.327614z"  horiz-adv-x="1024" />

    
    <glyph glyph-name="dangqianhuowu" unicode="&#58909;" d="M989.0816 654.609067a26.555733 26.555733 0 0 1-2.6624 11.4688 25.326933 25.326933 0 0 1-17.749333 13.653333L522.3424 893.405867a26.8288 26.8288 0 0 1-23.005867 0L48.776533 677.956267a26.0096 26.0096 0 0 1-14.882133-22.459734v-541.832533a25.736533 25.736533 0 0 1 14.882133-23.3472l450.56-215.4496h0.4096a7.850667 7.850667 0 0 0 1.979734-0.887467h0.887466l1.979734-0.6144h0.682666c0.273067 0 1.501867 0 2.184534-0.4096H511.010133a12.629333 12.629333 0 0 1 2.8672 0h0.682667a7.850667 7.850667 0 0 1 2.184533 0.4096h0.682667l1.979733 0.6144h0.887467a7.850667 7.850667 0 0 1 1.979733 0.887467h0.4096l451.9936 216.132267a26.077867 26.077867 0 0 1 14.882134 23.3472V653.9264c-0.477867 0.2048-0.477867 0.477867-0.477867 0.682667zM510.737067 841.386667l390.894933-186.914134L757.384533 585.454933 366.762667 772.369067z m0-373.896534L119.842133 654.404267 306.824533 743.6288 697.4464 556.714667zM86.3232 612.693333L484.317867 422.229333v-482.577066L86.3232 130.048z m450.56-673.041066V422.229333l187.050667 89.4976v-126.225066a26.282667 26.282667 0 0 1 52.565333 0V536.9856l159.9488 76.526933v-482.577066z"  horiz-adv-x="1024" />

    
    <glyph glyph-name="cheyuanxinxi" unicode="&#58912;" d="M1505.468623 461.926943l-41.880737 167.842648a25.336247 25.336247 0 0 1 20.061193 24.776772v27.014674a106.540119 106.540119 0 0 1-106.460194 106.460193h-191.020917v55.947549a52.430846 52.430846 0 0 1-52.350921 52.350921H160.489541a52.430846 52.430846 0 0 1-52.350921-52.350921v-459.649079a25.336247 25.336247 0 0 1 50.672495 0V843.649079a1.678426 1.678426 0 0 0 1.678426 1.678426h973.327506a1.678426 1.678426 0 0 0 1.678426-1.678426v-459.649079a25.336247 25.336247 0 1 1 50.672495 0v28.6931h299.159537a82.962223 82.962223 0 0 0 78.726195-57.466125h-78.80612a25.336247 25.336247 0 0 1-25.336247-25.336248v-54.109272a79.92507 79.92507 0 0 1 79.44552-79.44552h28.6931v-111.895098h-66.257883a160.489541 160.489541 0 0 1-303.715267 0h-12.228536V275.38183a25.336247 25.336247 0 0 1-50.672494 0v-190.940993H609.588511a160.489541 160.489541 0 0 1-303.715267 0H160.489541a1.678426 1.678426 0 0 0-1.678426 1.678426v55.947549h109.896971a25.336247 25.336247 0 0 1 0 50.672495H25.336247a25.336247 25.336247 0 0 1 0-50.672495h82.802373v-55.947549a52.430846 52.430846 0 0 1 52.350921-52.350921h136.911645v-1.678426a160.569466 160.569466 0 0 1 321.059008 0v1.678426h571.224477v-1.678426a160.569466 160.569466 0 0 1 321.059007 0v1.678426h82.882298a25.336247 25.336247 0 0 1 25.336247 25.336247V329.491102a133.714643 133.714643 0 0 1-113.4936 132.435841z m-319.22073 275.261942h190.861067a55.947549 55.947549 0 0 0 55.94755-55.947549v-1.678426h-246.888542z m0-273.743365V629.210116h225.228848l41.401186-165.604746z m-728.357166-540.773025A109.817047 109.817047 0 1 0 567.467999 32.569466a109.976897 109.976897 0 0 0-109.577272-109.896971z m892.20356 0a109.817047 109.817047 0 1 0 109.817046 109.817046 109.976897 109.976897 0 0 0-109.817046-109.817046z m217.955666 324.41586h-28.6931a28.773025 28.773025 0 0 0-28.6931 28.6931v28.6931h57.466125v-57.466125zM457.890727 84.680612a52.350921 52.350921 0 1 1 52.350921-52.350921 52.430846 52.430846 0 0 1-52.350921 52.350921zM1350.094287 84.680612a52.350921 52.350921 0 1 1 52.350921-52.350921 52.430846 52.430846 0 0 1-52.350921 52.350921zM1052.6931 193.059007H674.167968a25.336247 25.336247 0 0 1 0-50.672494h378.525132a25.336247 25.336247 0 1 1 0 50.672494zM403.86138 301.197627H79.44552a25.336247 25.336247 0 1 1 0-50.672494h324.41586a25.336247 25.336247 0 0 1 0 50.672494zM881.413675 645.35498a25.336247 25.336247 0 0 1-35.806432 0l-225.388698-225.388698-117.250078 117.250078a25.336247 25.336247 0 0 1-35.806431-35.806432l135.153293-135.153294a25.336247 25.336247 0 0 1 35.806432 0l243.291914 243.291914a25.336247 25.336247 0 0 1 0 35.806432z"  horiz-adv-x="1618" />

    
    <glyph glyph-name="yunshu" unicode="&#58914;" d="M0 896h1024v-1024H0zM818.56 520.16h-62.72l19.04 216.96v1.12a14.88 14.88 0 0 1-8.8 13.76H461.6a14.72 14.72 0 0 1 0-29.28h282.72l-28.96-332.48-7.36-84H200.96l8.48 87.52h96a14.56 14.56 0 0 1 0 29.12h-93.28L230.08 608H384a14.72 14.72 0 1 1 0 29.28h-151.04l8.48 86.88h161.92a14.56 14.56 0 0 1 0 29.12h-176a14.72 14.72 0 0 1-14.24-11.52 3.2 3.2 0 0 0 0-1.12l-9.92-102.88H26.88a14.56 14.56 0 0 1 0-29.12h174.08l-17.92-185.92H130.88a14.56 14.56 0 0 1 0-29.12h49.28l-9.76-100.64-15.04-155.52v-2.88a2.72 2.72 0 0 1 0-1.12 3.2 3.2 0 0 0 0-0.8 13.92 13.92 0 0 1 3.52-5.6 20.48 20.48 0 0 1 3.36-2.24h71.2a111.04 111.04 0 0 1 220.16 0h235.36a111.2 111.2 0 0 1 220.32 0h69.6a6.88 6.88 0 0 1 0 1.12v1.28a2.24 2.24 0 0 0 0 0.96c0 4.96 12 96 17.12 155.84 1.6 17.12 2.4 32 2.4 40.32a189.76 189.76 0 0 1-179.84 195.84z m-65.12-29.28h59.68l-7.68-87.52h-59.68zM344.96 53.92a81.92 81.92 0 1 0 81.92 81.92 81.92 81.92 0 0 0-81.92-81.92z m454.24 0a81.92 81.92 0 1 0 81.92 81.92A81.92 81.92 0 0 0 800 53.92z m162.24 96h-52.16a111.04 111.04 0 0 1-220.16 0H455.04a111.04 111.04 0 0 1-220.16 0h-48.96l12.16 126.4h527.52l7.36 84h75.36c44.8 0 64.96-23.2 86.24-48 17.6-20.32 37.28-42.88 70.72-48-4.16-44.8-11.04-102.4-14.08-128z m16 156.96c-21.76 4.48-35.04 19.68-51.2 38.24-20.32 23.36-44.96 51.52-92.32 56.96l7.68 86.56a160 160 0 0 0 136.8-158.72c0-5.44 0-13.44-0.96-23.04zM344.96 189.44a53.6 53.6 0 1 1 53.44-53.6 53.6 53.6 0 0 1-53.44 53.6z m0-77.92a24.32 24.32 0 1 0 24.32 24.32A24.32 24.32 0 0 0 344.96 112zM800 189.44a53.6 53.6 0 1 1 53.44-53.6A53.6 53.6 0 0 1 800 189.44zM800 112a24.32 24.32 0 1 0 24.32 24.32A24.32 24.32 0 0 0 800 112zM150.24 520.16H79.04a14.72 14.72 0 0 1 0-29.28h71.2a14.72 14.72 0 1 1 0 29.28z"  horiz-adv-x="1024" />

    
    <glyph glyph-name="wenda" unicode="&#58911;" d="M460.8 742.4h153.6a307.2 307.2 0 0 0 307.2-307.2v-460.8H460.8a307.2 307.2 0 0 0-307.2 307.2V435.2a307.2 307.2 0 0 0 307.2 307.2zM972.8-76.8H460.8a358.4 358.4 0 0 0-358.4 358.4V435.2a358.4 358.4 0 0 0 358.4 358.4h153.6a358.4 358.4 0 0 0 358.4-358.4zM460.8 691.2a256 256 0 0 1-256-256v-153.6a256 256 0 0 1 256-256h409.6V435.2a256 256 0 0 1-256 256zM358.4 512A76.8 76.8 0 0 0 435.2 435.2 76.8 76.8 0 0 0 358.4 358.4 76.8 76.8 0 0 0 281.6 435.2 76.8 76.8 0 0 0 358.4 512zM614.4 512A76.8 76.8 0 0 0 691.2 435.2a76.8 76.8 0 0 0-76.8-76.8A76.8 76.8 0 0 0 537.6 435.2 76.8 76.8 0 0 0 614.4 512z"  horiz-adv-x="1024" />

    
    <glyph glyph-name="lanshou" unicode="&#58913;" d="M0 896h1024v-1024H0zM796.32 568.32l-263.36 145.92a43.52 43.52 0 0 1-42.88 0l-263.68-145.92a44.16 44.16 0 0 1-22.72-38.72V240a44.16 44.16 0 0 1 22.72-38.56l263.68-146.08a44.16 44.16 0 0 1 42.72 0l263.52 146.08A44 44 0 0 1 819.2 240V529.6a44.32 44.32 0 0 1-22.88 38.72z m-288.8 114.24a7.68 7.68 0 0 0 7.84 0L620.48 624l-253.76-140.32-107.68 61.28zM244 232.48A7.68 7.68 0 0 0 240 240V514.08L357.44 448l135.68-77.28V94.4z m160 229.76l254.4 140.96L768 543.04l-256-141.76zM782.88 240a7.68 7.68 0 0 0-4-6.88L529.6 94.24V369.92l253.44 140.48zM384 387.36l-96 52.8a17.92 17.92 0 0 1-24.32-7.04 14.88 14.88 0 0 1-2.24-8.64v-76.64a18.4 18.4 0 0 1 9.28-16l96-52.8a18.08 18.08 0 0 1 26.88 16v76.8a18.4 18.4 0 0 1-9.6 15.52z m-26.72-61.76l-59.84 32V393.6l59.84-32.8zM459.84 195.84l-48 26.4a17.76 17.76 0 0 1-24.16-6.56 17.92 17.92 0 0 1 6.72-24.48l48-26.4a18.24 18.24 0 0 1 17.44 32zM966.24 470.24a461.12 461.12 0 0 1-76 181.28l33.44 33.28a18.08 18.08 0 0 1 0 25.6 17.6 17.6 0 0 1-12.8 5.44h-89.92a18.24 18.24 0 0 1-18.08-18.24V608a18.24 18.24 0 0 1 17.92-18.24 17.6 17.6 0 0 1 12.8 5.44l30.4 30.24a427.52 427.52 0 0 0-522.08-633.28 17.76 17.76 0 0 1-24-8 18.24 18.24 0 0 1 8-24.32h1.76a460.96 460.96 0 0 1 183.36-38.24 475.04 475.04 0 0 1 83.84 7.68 464 464 0 0 1 371.36 540.96z m-128 181.28v28h28.96zM755.04 778.88h-0.96A18.08 18.08 0 0 1 736 748.48a18.08 18.08 0 0 1 19.04 30.88zM694.4 810.4a464 464 0 0 1-561.6-692.8l-33.6-33.44a18.08 18.08 0 0 1 12.8-30.88h89.92a18.4 18.4 0 0 1 18.08 18.08v89.92a18.08 18.08 0 0 1-30.88 12.8L158.56 144A427.36 427.36 0 0 0 680 777.12a18.24 18.24 0 0 1 24 9.6 18.24 18.24 0 0 1-9.6 23.68z m-510.56-692.8v-28.16H155.68z"  horiz-adv-x="1024" />

    
    <glyph glyph-name="qianshou" unicode="&#58915;" d="M0 896h1024v-1024H0zM763.84 563.84a18.08 18.08 0 0 1 16 16v61.6a90.88 90.88 0 0 1-90.72 90.56H592V736a52.48 52.48 0 0 1-51.84 53.12H505.6A98.08 98.08 0 0 1 416 848h-3.52a98.56 98.56 0 0 1-89.76-58.88h-33.6A52.48 52.48 0 0 1 236.48 736v-6.24H138.56C81.92 732 48 704.96 48 659.52v-648.96A90.88 90.88 0 0 1 138.56-80H689.6a90.4 90.4 0 0 1 90.56 90.24V420.8a18.08 18.08 0 1 1-36.16 0v-410.24a54.4 54.4 0 0 0-54.4-54.4H138.56a54.56 54.56 0 0 0-54.4 54.4V659.52c0 8.96 0 36.16 54.4 36.16h97.92v-25.28a18.4 18.4 0 0 1 18.08-18.08h319.04A17.92 17.92 0 0 1 592 669.76v25.92h97.6a54.4 54.4 0 0 0 54.4-54.4v-60.96a18.24 18.24 0 0 1 19.84-16.48zM272.8 688v48a16 16 0 0 0 16 16H336a18.4 18.4 0 0 1 17.6 13.28 61.28 61.28 0 0 0 59.36 45.44H416a61.6 61.6 0 0 0 59.52-45.44 18.08 18.08 0 0 1 17.44-13.28h46.4a16 16 0 0 0 16-16v-48zM762.08 522.72a18.24 18.24 0 1 1 18.08-18.4 16.96 16.96 0 0 1-5.28 12.8 18.4 18.4 0 0 1-12.8 5.6zM957.92 264.32a18.08 18.08 0 1 1 12.8-5.28 18.24 18.24 0 0 1-12.8 5.28zM960 302.56a18.08 18.08 0 0 1 16 16V504.48a20.32 20.32 0 0 1-1.6 7.52l-57.92 129.6a18.24 18.24 0 0 1-24 9.12 18.08 18.08 0 0 1-9.12-9.12L825.28 512a20.48 20.48 0 0 1-1.6-7.52v-541.12a43.36 43.36 0 0 1 43.2-43.2h65.76a43.36 43.36 0 0 1 43.2 43.2V167.04a18.24 18.24 0 0 1-36.32 0v-126.72h-80V486.4h80v-167.36A18.24 18.24 0 0 1 960 302.56z m-100-298.4h80v-40.8a7.04 7.04 0 0 0-6.88-7.04h-66.24a7.04 7.04 0 0 0-6.88 7.04z m9.92 518.56l29.92 67.04 30.08-67.04zM261.28 587.04a76.16 76.16 0 1 1 76.16-76.16 76.16 76.16 0 0 1-76.16 76.16z m0-116a39.84 39.84 0 1 0 39.84 39.84 39.68 39.68 0 0 0-39.84-39.84zM261.28 369.44a76.16 76.16 0 1 1 76.16-76.16 76.16 76.16 0 0 1-76.16 76.16z m0-115.84a40 40 0 1 0 39.84 40.16 40 40 0 0 0-39.84-40.32zM261.28 152a76.16 76.16 0 1 1 76.16-76.16 76.16 76.16 0 0 1-76.16 76.16z m0-116a39.84 39.84 0 1 0 39.84 39.84 39.68 39.68 0 0 0-39.84-39.84zM624.96 471.04h-208a18.24 18.24 0 0 1 0-36.32h208a18.24 18.24 0 0 1 0 36.32zM624.96 558.08h-208a18.24 18.24 0 0 1 0-36.32h208a18.24 18.24 0 0 1 0 36.32zM624.96 253.44h-208a18.08 18.08 0 1 1 0-36.16h208a18.08 18.08 0 0 1 0 36.16zM624.96 340.48h-208a18.08 18.08 0 0 1 0-36.16h208a17.92 17.92 0 0 1 18.24 17.6 18.24 18.24 0 0 1-18.08 18.24zM624.96 36h-208a18.24 18.24 0 0 1-3.36-36h211.36a18.08 18.08 0 0 1 19.52 16 18.24 18.24 0 0 1-16 19.52zM624.96 123.04h-208a18.56 18.56 0 0 1-18.24-18.08 18.24 18.24 0 0 1 18.08-18.24h208a18.24 18.24 0 1 1 4 36.32 11.84 11.84 0 0 1-3.36 0z"  horiz-adv-x="1024" />

    
    <glyph glyph-name="xiadan1" unicode="&#58916;" d="M0 896h1024v-1024H0zM438.72 12.48a18.72 18.72 0 0 1-26.56-26.4 18.72 18.72 0 0 1 26.56 0 18.24 18.24 0 0 1 5.6 13.12 18.88 18.88 0 0 1-5.6 13.28zM688 812.16h-116.8a18.72 18.72 0 0 1 0-37.28H688a18.72 18.72 0 0 1 0 37.28zM882.4 443.68a18.56 18.56 0 0 1 18.56 18.56V796.8A67.2 67.2 0 0 1 834.4 864H425.76a67.36 67.36 0 0 1-67.2-67.2v-128a476.96 476.96 0 0 1-176-370.56v-194.88h-16A37.12 37.12 0 0 1 128 67.68v-137.28a18.72 18.72 0 0 1 37.28 0v135.84H496v-135.84a18.56 18.56 0 1 1 37.12 0v81.92h301.28a67.2 67.2 0 0 1 67.2 67.2V307.68a18.88 18.88 0 1 1-37.6 3.52 12.96 12.96 0 0 1 0-3.52v-137.28H585.6l59.2 83.36a64 64 0 0 1-14.72 89.28l-1.28 0.96a64 64 0 0 1-75.52 0L435.68 256a24.96 24.96 0 0 0-39.84 20V722.56H864V462.4a18.56 18.56 0 0 1 18.4-18.72zM864 133.12V80a30.08 30.08 0 0 0-30.08-30.08H532.32v16a37.6 37.6 0 0 1-15.04 30.08 183.36 183.36 0 0 1 41.44 37.12z m-443.36 80a64 64 0 0 1 37.12 12.32l118.24 88a28.96 28.96 0 0 0 16 5.6 27.84 27.84 0 0 0 27.68-27.84 27.2 27.2 0 0 0-5.12-16l-78.4-110.56a146.08 146.08 0 0 0-118.56-61.28H219.04V297.92a436.8 436.8 0 0 0 139.52 321.28v-343.36a62.56 62.56 0 0 1 62.08-62.24zM395.84 759.84V796.8a30.4 30.4 0 0 0 29.92 30.08h408.64A30.08 30.08 0 0 0 864 796.8v-36.96zM643.2 106.08a18.56 18.56 0 0 1-26.24 0 18.88 18.88 0 0 1 0-26.4 18.56 18.56 0 0 1 26.24 0 18.4 18.4 0 0 1 5.44 13.12 18.72 18.72 0 0 1-5.44 13.28zM896 401.12a18.56 18.56 0 0 1-26.24 0 18.88 18.88 0 0 1 0-26.4 18.56 18.56 0 0 1 26.24 0 18.4 18.4 0 0 1 5.44 13.12 18.72 18.72 0 0 1-5.44 13.28z"  horiz-adv-x="1024" />

    
    <glyph glyph-name="shouli" unicode="&#58918;" d="M701.332782 144.03233a100.065762 100.065762 0 0 1-7.283816 7.630665l-109.950942 110.991487a78.040889 78.040889 0 0 1-110.124365 0l-35.898809-36.072234a23.585691 23.585691 0 0 0-33.297447 0L272.628165 358.384639a23.585691 23.585691 0 0 0 0 32.256901 6.763544 6.763544 0 0 1 1.387393 1.734242l34.68484 34.684839a78.040889 78.040889 0 0 1 0 110.124366l-110.471214 110.471214a77.694041 77.694041 0 0 1-109.950942 0c-2.254515-2.254515-4.162181-4.509029-6.243271-6.936967l-23.759115-30.002387a271.929143 271.929143 0 0 1 21.678024-360.028635l217.473945-217.473945a271.755718 271.755718 0 0 1 329.505976-41.968655A47.865079 47.865079 0 0 0 589.994447-86.448429h-133.363208a19.943783 19.943783 0 0 1-19.076662-20.810904 19.770359 19.770359 0 0 1 19.076662-19.076662H589.994447a87.752644 87.752644 0 0 1 70.410225 140.300176l27.227599 21.504601a77.347192 77.347192 0 0 1 13.700511 108.563548zM113.424751 616.266422a37.979899 37.979899 0 0 0 53.241228 6.590119l3.29506-3.121635 110.471214-110.471215a37.806475 37.806475 0 0 0 0-53.414653l-22.024873-22.024873-161.631352 161.457929z m212.097794-554.957434L108.0486 278.956356a232.215001 232.215001 0 0 0-34.684839 283.37514l159.203414-159.203414a63.646681 63.646681 0 0 1 11.966269-73.185012l131.975815-132.149239a63.646681 63.646681 0 0 1 73.185012-11.966269l159.203414-159.203414a231.868153 231.868153 0 0 0-283.37514 34.68484z m336.789793 5.37615l-20.290631-17.34242-162.498474 161.284504 22.024873 22.024873a37.979899 37.979899 0 0 0 53.588077 0l111.338335-108.736972a37.459627 37.459627 0 0 0 10.232028-29.655538 38.500172 38.500172 0 0 0-14.394208-27.574447zM293.612492 190.163167l-119.83612 121.396938a19.943783 19.943783 0 1 1-28.268145-28.268144l121.396939-121.396939a20.290631 20.290631 0 0 1 31.042931 26.187054L295.17331 190.163167zM356.218628 127.557031a19.943783 19.943783 0 0 1-29.308689-27.054175l1.213969-1.213969a19.943783 19.943783 0 0 1 27.921296 0 19.596934 19.596934 0 0 1 5.896423 14.04736 19.770359 19.770359 0 0 1-5.722999 14.220784zM875.103829 895.999653H491.489503a147.583993 147.583993 0 0 1-147.757417-147.410568v-158.162869a147.757417 147.757417 0 0 1 147.410568-147.757417h161.11108v-56.18944a19.943783 19.943783 0 0 1 34.68484-14.04736l69.369679 70.2368h118.101879a148.104265 148.104265 0 0 1 149.14481 147.06372V748.242236A148.104265 148.104265 0 0 1 875.103829 895.999653z m107.523003-147.757417v-157.81602a107.869851 107.869851 0 0 0-107.696427-107.696427h-126.426241a21.331176 21.331176 0 0 1-14.04736-5.896423l-42.14208-41.968656V462.439158a20.117207 20.117207 0 0 1-19.943783 20.117207H491.489503a107.696427 107.696427 0 0 0-107.869852 107.523003V748.242236a107.869851 107.869851 0 0 0 107.523003 107.869852h383.614326a107.523003 107.523003 0 0 0 107.869852-107.523003zM399.227829-92.518276l-50.293017 49.59932a19.943783 19.943783 0 0 1-28.268145-28.268144l49.599321-49.59932a20.290631 20.290631 0 0 1 31.042932 26.187053zM297.427825-92.518276l-49.599321 49.59932a19.943783 19.943783 0 0 1-28.268144-28.268144l49.599321-49.59932A19.943783 19.943783 0 0 1 297.427825-92.518276zM196.321517-92.518276l-49.59932 49.772745a19.943783 19.943783 0 0 1-27.921296 0 19.943783 19.943783 0 0 1 0-28.268145l49.425896-49.59932A19.943783 19.943783 0 1 1 196.494942-92.518276zM891.058855 718.413274H480.21693a26.01363 26.01363 0 0 0 0 52.02726h410.841925a25.840206 25.840206 0 0 0 24.452812-27.401024 25.666781 25.666781 0 0 0-24.452812-24.279387zM717.461233 583.836097H480.21693a26.01363 26.01363 0 0 0 0 52.027259h237.244303a26.01363 26.01363 0 0 0 0-52.027259z"  horiz-adv-x="1024" />

    


  </font>
</defs>
</svg>
