<svg class="icon" width="48" height="48" viewBox="0 0 1024 1024" xmlns="http://www.w3.org/2000/svg"><path fill="#333" d="M681.301 426.667a192 192 0 0 1-381.482 0h-1.195V384h1.195a192 192 0 0 1 381.44 0H768v42.667h-86.656zm-43.008 0H342.784a149.333 149.333 0 0 0 295.51 0zM342.784 384h295.51a149.333 149.333 0 0 0-295.51 0zm382.293 394.07l-95.36-95.403H351.66L256 778.325v75.008h469.12V778.07zm42.667-17.153V896h-554.41V760.747L333.993 640v.043V640h313.089v.299l.256-.299 120.704 120.704-.256.213z"/></svg>